<svg xmlns="http://www.w3.org/2000/svg" width="238" height="44.172" viewBox="0 0 238 44.172">
    <g transform="translate(48.985 6.593)">
        <path d="M100.174,0H104.1V27.3h-3.927Z" transform="translate(-14.432)" fill="#0a1d2e"/>
        <path d="M16.295,15.363a11.646,11.646,0,0,0-2.5-1.374c-.867-.358-1.727-.662-2.56-.921-1.258-.4-2.332-.765-3.192-1.086a11.182,11.182,0,0,1-1.979-1.013,3.43,3.43,0,0,1-.962-.993,2.994,2.994,0,0,1-.272-1.308,2.594,2.594,0,0,1,1.289-2.43,6.1,6.1,0,0,1,3.24-.844,5.625,5.625,0,0,1,3.59,1.083,4.436,4.436,0,0,1,1.4,3.566v.384H17.95v-.387a8.207,8.207,0,0,0-2.04-5.993c-1.4-1.51-3.577-2.288-6.405-2.288a10.254,10.254,0,0,0-4.658.993A7.259,7.259,0,0,0,1.89,5.319a6.252,6.252,0,0,0-1,3.387,5.771,5.771,0,0,0,.884,3.209,8.036,8.036,0,0,0,2.254,2.2A17.2,17.2,0,0,0,7.02,15.627c1.044.4,2.087.765,3.1,1.07a22.943,22.943,0,0,1,2.72.993,4.493,4.493,0,0,1,1.642,1.176,2.694,2.694,0,0,1,.534,1.758,3.3,3.3,0,0,1-.561,1.911,3.554,3.554,0,0,1-1.6,1.285,7.161,7.161,0,0,1-2.754.457,7.759,7.759,0,0,1-3.352-.662A5.488,5.488,0,0,1,4.582,21.79a5.277,5.277,0,0,1-.9-2.649l-.027-.368H.163l-.078.295a3.979,3.979,0,0,0,.031,1.765,9.129,9.129,0,0,0,.819,2.318,9.167,9.167,0,0,0,4.845,4.123,13.121,13.121,0,0,0,4.42.662,10.707,10.707,0,0,0,4.933-.993,6.671,6.671,0,0,0,2.886-2.619,6.985,6.985,0,0,0,.949-3.527,6.409,6.409,0,0,0-.748-3.248A6.14,6.14,0,0,0,16.295,15.363Z"
              transform="translate(0 -0.253)" fill="#0a1d2e"/>
        <path d="M29.588,8.848H25.662V28.573h3.927Z" transform="translate(-3.697 -1.275)" fill="#0a1d2e"/>
        <path d="M61.027,8.883a5.958,5.958,0,0,1,2.251,1.424,6.341,6.341,0,0,1,1.414,2.255,8.041,8.041,0,0,1,.493,2.9V28.5H61.258V16.214a4.25,4.25,0,0,0-.942-3.023,3.81,3.81,0,0,0-2.849-.97,5.359,5.359,0,0,0-2.744.738,6.253,6.253,0,0,0-2.6,3.007V28.5H48.2V16.214a4.25,4.25,0,0,0-.942-3.023,3.81,3.81,0,0,0-2.849-.97,5.359,5.359,0,0,0-2.744.738,6.21,6.21,0,0,0-2.118,2.066,6.527,6.527,0,0,0-.8,1.894v11.59H34.821V8.781h3.923v3.527a8.332,8.332,0,0,1,1.36-1.851,6.9,6.9,0,0,1,2.23-1.527A7.03,7.03,0,0,1,45.024,8.4a8.566,8.566,0,0,1,2.941.48,5.958,5.958,0,0,1,2.251,1.424,6.34,6.34,0,0,1,1.411,2.258l.02.05a8.6,8.6,0,0,1,1.516-2.159A6.909,6.909,0,0,1,55.4,8.93,7.03,7.03,0,0,1,58.086,8.4,8.566,8.566,0,0,1,61.027,8.883Z"
              transform="translate(-5.017 -1.211)" fill="#0a1d2e"/>
        <path d="M89.141,9.76A7.848,7.848,0,0,0,84.67,8.4a7.623,7.623,0,0,0-3.781.848,5.631,5.631,0,0,0-2.254,2.281c-.071.126-.136.258-.2.39L78.343,8.78h-3.8v27.3h3.927v-11.3c.065.146.129.291.2.437a7.4,7.4,0,0,0,2.264,2.649,6.442,6.442,0,0,0,3.74,1.02,7.884,7.884,0,0,0,4.389-1.325,9.762,9.762,0,0,0,3.243-3.642,11.229,11.229,0,0,0,1.21-5.252,11.219,11.219,0,0,0-1.207-5.252A9.528,9.528,0,0,0,89.141,9.76Zm.445,8.941a7.707,7.707,0,0,1-.734,3.421,5.8,5.8,0,0,1-2.04,2.318,5.347,5.347,0,0,1-2.927.8,4.969,4.969,0,0,1-3.019-.868,5.535,5.535,0,0,1-1.809-2.318,9.159,9.159,0,0,1-.595-3.341,8.053,8.053,0,0,1,.7-3.474,5.432,5.432,0,0,1,1.921-2.3,4.825,4.825,0,0,1,2.795-.838,5.068,5.068,0,0,1,4.192,1.858,7.357,7.357,0,0,1,1.513,4.719Z"
              transform="translate(-10.739 -1.21)" fill="#0a1d2e"/>
        <path d="M122.325,8.848l-5.423,14.2-5.436-14.2H107.24l7.619,19.03-3.8,8.268h4.291l11.172-27.3Z" transform="translate(-15.45 -1.275)" fill="#0a1d2e"/>
        <path d="M144.708,12.035a5.943,5.943,0,0,0-2.944.778,5.835,5.835,0,0,0-2.206,2.275,7.129,7.129,0,0,0-.843,3.6,7.246,7.246,0,0,0,.843,3.593,5.984,5.984,0,0,0,2.183,2.235,6.221,6.221,0,0,0,2.978.738,5.5,5.5,0,0,0,3.587-1.116,6.56,6.56,0,0,0,2.04-3.255l.085-.285h3.56l-.051.44a8.55,8.55,0,0,1-1.632,4.242,8.787,8.787,0,0,1-3.3,2.7,10.238,10.238,0,0,1-4.3.911,10.108,10.108,0,0,1-4.862-1.225,9.771,9.771,0,0,1-3.689-3.51,10.568,10.568,0,0,1-1.38-5.467,10.377,10.377,0,0,1,1.377-5.427A9.943,9.943,0,0,1,144.708,8.4a9.678,9.678,0,0,1,4.267.95,8.817,8.817,0,0,1,3.294,2.7,8.57,8.57,0,0,1,1.669,4.156l.061.45h-3.607l-.088-.285a6.031,6.031,0,0,0-2.149-3.169A5.549,5.549,0,0,0,144.708,12.035Z"
              transform="translate(-19.417 -1.211)" fill="#0a1d2e"/>
        <path d="M173.952,9.668A9.715,9.715,0,0,0,169.121,8.4a9.932,9.932,0,0,0-8.554,4.854,10.378,10.378,0,0,0-1.38,5.427,10.6,10.6,0,0,0,1.38,5.467,9.744,9.744,0,0,0,3.692,3.51,10.1,10.1,0,0,0,4.862,1.225,9.889,9.889,0,0,0,4.824-1.225,9.484,9.484,0,0,0,3.655-3.517,10.589,10.589,0,0,0,1.36-5.46,10.376,10.376,0,0,0-1.36-5.424A9.694,9.694,0,0,0,173.952,9.668Zm-1.965,14.841a5.855,5.855,0,0,1-2.869.742,6.067,6.067,0,0,1-2.914-.745,5.851,5.851,0,0,1-2.251-2.189,7.368,7.368,0,0,1-.843-3.642,6.96,6.96,0,0,1,.881-3.642,5.929,5.929,0,0,1,5.124-3,5.668,5.668,0,0,1,2.873.778,5.956,5.956,0,0,1,2.189,2.285,6.872,6.872,0,0,1,.87,3.586,7.086,7.086,0,0,1-.881,3.642A5.721,5.721,0,0,1,171.987,24.509Z"
              transform="translate(-22.933 -1.211)" fill="#0a1d2e"/>
        <path d="M213.818,10.307a6.35,6.35,0,0,1,1.408,2.258,8.042,8.042,0,0,1,.493,2.9V28.5h-3.927V16.214a4.25,4.25,0,0,0-.942-3.023,3.81,3.81,0,0,0-2.849-.97,5.37,5.37,0,0,0-2.744.738,6.254,6.254,0,0,0-2.6,3.007V28.5h-3.927V16.214a4.234,4.234,0,0,0-.938-3.023,3.823,3.823,0,0,0-2.852-.97,5.37,5.37,0,0,0-2.744.738,6.21,6.21,0,0,0-2.118,2.066,6.563,6.563,0,0,0-.8,1.894v11.59h-3.923V8.78h3.923v3.527a8.361,8.361,0,0,1,1.36-1.851,6.9,6.9,0,0,1,2.23-1.527,7.03,7.03,0,0,1,2.689-.526,8.6,8.6,0,0,1,2.944.48,6.026,6.026,0,0,1,2.251,1.424,6.333,6.333,0,0,1,1.408,2.258l.02.05a8.542,8.542,0,0,1,1.52-2.159,6.9,6.9,0,0,1,2.23-1.527,7.03,7.03,0,0,1,2.689-.526,8.6,8.6,0,0,1,2.944.48A6.053,6.053,0,0,1,213.818,10.307Z"
              transform="translate(-26.704 -1.211)" fill="#0a1d2e"/>
        <path d="M27.482.015a2.509,2.509,0,0,0-1.747.706,2.359,2.359,0,0,0,0,3.4,2.514,2.514,0,0,0,3.493,0,2.359,2.359,0,0,0,0-3.4A2.509,2.509,0,0,0,27.482.015Z" transform="translate(-3.603 -0.002)" fill="#0a1d2e"/>
        <path d="M129.179,26.881a2.514,2.514,0,0,1,3.493,0,2.36,2.36,0,0,1,0,3.4,2.509,2.509,0,0,1-3.494,0,2.36,2.36,0,0,1,0-3.4Z" transform="translate(-18.506 -3.771)" fill="#0a1d2e"/>
    </g>
    <path d="M20.129.286.156,25.833a.729.729,0,0,0,.582,1.176H15.556a.734.734,0,0,0,.722-.586L21.432.876A.736.736,0,0,0,20.129.286Z" transform="translate(0 0)" fill="#b522c1"/>
    <path d="M21.706,46.775,41.679,21.228a.729.729,0,0,0-.582-1.176H26.278a.734.734,0,0,0-.722.586L20.4,46.185A.736.736,0,0,0,21.706,46.775Z" transform="translate(-2.937 -2.889)" fill="#b522c1"/>
</svg>