<svg enable-background="new 0 0 598.2 200.8" viewBox="0 0 598.2 200.8" xmlns="http://www.w3.org/2000/svg"><g fill="#102d47"><path d="m157.7 78.8c-32.8 0-53-21.6-53.2-21.8-.1-.1-.2-.2-.3-.2 0 0-.1-.1-.1-.2-.1 0-.1-.1-.2-.1-.2-.2-.4-.3-.6-.5-.1-.1-.2-.1-.3-.2-.2-.1-.4-.2-.7-.3-.1 0-.2-.1-.4-.1-.2-.1-.5-.1-.7-.2-.1 0-.2 0-.4-.1-.2 0-.5 0-.7 0-.1 0-.2 0-.4 0s-.5.1-.7.1c-.1 0-.2.1-.4.1-.2.1-.4.1-.7.2-.1.1-.3.1-.4.2-.2.1-.4.2-.6.3-.1.1-.3.2-.4.3s-.2.1-.3.2-.1.1-.2.2-.1.1-.2.2c-.2.2-20.4 21.9-53.2 21.9-3.2 0-5.8 2.6-5.8 5.8s2.6 5.8 5.8 5.8c29 0 49.1-14.3 57.4-21.5 8.3 7.3 28.4 21.5 57.4 21.5 3.2 0 5.8-2.6 5.8-5.8.3-3.3-2.3-5.8-5.5-5.8z"/><path d="m163.5 0h-126.4c-20.4 0-37.1 16.7-37.1 37.1v126.5c0 15.5 9.6 28.9 23.2 34.3.4.2.9.4 1.3.5 4.1 1.6 8.6 2.5 13.3 2.5h124.8c4.7 0 9.2-.9 13.4-2.5.4-.2.9-.3 1.3-.5 13.6-5.5 23.2-18.8 23.2-34.3v-126.5c.1-20.4-16.6-37.1-37-37.1zm17.8 181.6c-2.6 2.7-5.8 4.8-9.4 6.1 0 0-.1.1-.2.1-2.6.9-5.3 1.3-8.2 1.3h-27.5-71.4-27.5c-2.9 0-5.6-.5-8.2-1.3-.1 0-.1 0-.2-.1-4.8-1.8-8.9-5-11.9-9.1 0 0 0 0 0-.1-3-4.1-4.8-9.1-5.1-14.5 0-.4 0-.8 0-1.2 0-.5 0-.9 0-1.4 0-.4.1-.9.1-1.3.6-6.2 3.4-11.8 7.5-16 .3-.3.6-.6.9-.9s.7-.6 1-.9.7-.5 1-.8c.7-.5 1.3-.9 2-1.4.1 0 .1-.1.2-.1.4-.2.8-.5 1.2-.7.2-.1.3-.2.5-.2.5-.2 1-.5 1.5-.7.3-.1.5-.2.7-.3.3-.1.6-.2.8-.3s.5-.2.7-.2c.3-.1.5-.2.8-.2.4-.1.7-.2 1.1-.3h.1c6.4-1.5 13.3-.5 19.3 3.2.2.1.4.2.6.4h.1c2.6 1.1 5.7.2 7.2-2.3 1.7-2.7.8-6.3-1.9-7.9-.2-.1-.3-.2-.4-.3 8.7-15.8 25.3-25.8 43.5-25.8s34.8 10 43.5 25.8c-.2.1-.3.2-.4.3-2.7 1.7-3.6 5.2-1.9 7.9 1.5 2.5 4.6 3.4 7.2 2.3.2-.1.5-.2.7-.4 6-3.6 12.9-4.6 19.3-3.2h.1c.4.1.8.2 1.1.3s.5.1.8.2.5.2.8.3c.5.2 1 .4 1.5.6.7.3 1.5.7 2.2 1.1h.1.1c1.1.6 2.1 1.3 3.1 2 .3.3.6.5 1 .8.1.1.2.1.3.2.3.2.5.4.8.7s.6.5.9.8c1.2 1.2 2.3 2.5 3.2 3.9.3.4.5.7.7 1.1.6 1.1 1.2 2.2 1.7 3.3v.1c.3.8.6 1.6.9 2.4.4 1.2.7 2.4.8 3.7.2 1.4.3 2.7.3 4.2-.1 7.3-3 13.9-7.7 18.8zm7.8-46c-2.1-2-4.4-3.8-6.8-5.2-.5-.3-.9-.6-1.4-.8-.1-.1-.1-.1-.2-.1-.3-.2-.6-.3-.8-.4-.3-.2-.7-.4-1-.5-.4-.2-.8-.4-1.2-.5-4.6-2-9.6-3.1-14.9-3.1-2.8 0-5.5.3-8.2.9-10.6-20.2-31.3-32.9-54.3-32.9-22.9 0-43.7 12.8-54.2 32.9-2.7-.6-5.4-.9-8.2-.9-5.1 0-10 1-14.4 2.9-.4.2-.9.4-1.3.6-.2.1-.4.2-.6.3-.8.4-1.7.8-2.5 1.3-.1.1-.2.1-.3.2-2.6 1.5-5 3.3-7.2 5.5v-98.7c-.1-14.1 11.4-25.6 25.5-25.6h126.5c14.1 0 25.5 11.5 25.5 25.5z"/><path d="m50.1 65.9c24.9 0 42.2-17.5 50.2-27.7 8 10.2 25.3 27.7 50.2 27.7 3.2 0 5.8-2.6 5.8-5.8s-2.6-5.8-5.8-5.8c-27.7 0-45.1-28.8-45.2-29.1-.1-.2-.2-.3-.3-.4 0-.1-.1-.1-.1-.2-.2-.2-.4-.5-.6-.7-.1-.1-.1-.1-.2-.2-.2-.2-.5-.4-.7-.5l-.1-.1h-.1c-.2-.1-.5-.2-.7-.3-.1 0-.2-.1-.4-.1-.2-.1-.4-.1-.7-.2-.2 0-.3-.1-.5-.1s-.4 0-.6 0-.4 0-.6 0-.3 0-.5.1c-.2 0-.4.1-.7.2-.1 0-.2.1-.3.1-.3.1-.5.2-.8.3h-.1l-.1.1c-.3.2-.5.3-.7.5-.1 0-.1.1-.2.2-.2.2-.4.4-.6.7 0 .1-.1.1-.1.2-.1.1-.2.3-.3.4-.2.3-17.4 29.1-45.2 29.1-3.2 0-5.8 2.6-5.8 5.8s2.6 5.8 5.8 5.8z"/><path d="m591.6 56.2c-3.5 0-6.4 2.9-6.4 6.6v73.4c0 3.7 2.9 6.6 6.6 6.6s6.4-2.8 6.4-6.6v-73.4c0-3.7-3-6.6-6.6-6.6z"/><path d="m284.7 130.2c-.5 0-.9.1-1.5.3-.9.2-2.3.6-4.3.6-6.2 0-9-2.7-9-8.9v-35.6h12c3.3 0 6.1-2.7 6.1-6 0-3.2-2.8-6-6.1-6h-12v-11.8c0-3.6-3-6.6-6.6-6.6s-6.4 2.9-6.4 6.6v60.6c0 12.6 7.2 19.8 19.8 19.8 3.8 0 6.9-.6 10-1.8 2.4-.9 3.8-3 3.8-5.3.1-3.3-2.6-5.9-5.8-5.9z"/><path d="m332.6 73.4c-18.2 0-32.4 15.4-32.4 35v.3c0 20 14.5 35 33.6 35 10.2 0 18-3.1 25.2-10.1 1.3-1.2 2.1-2.7 2.1-4.4 0-3.2-2.7-5.8-6-5.8-1.4 0-2.6.5-3.9 1.6-5.2 4.8-10.6 7-17.2 7-10.6 0-18.7-7.2-20.5-18.1h44.2c3.4 0 6.2-2.8 6.2-6.2.1-17.2-10.7-34.3-31.3-34.3zm-19 29.7c1.8-10.8 9.3-18.2 18.8-18.2 11.7 0 17.1 9.1 18.4 18.2z"/><path d="m454.7 73.4c-9.3 0-16.6 3.7-22.3 11.2-4.5-7.2-11.7-11.2-20.7-11.2-9.2 0-14.9 4-18.9 8.6v-1.3c0-3.7-2.9-6.6-6.6-6.6-3.5 0-6.4 2.9-6.4 6.6v55.5c0 3.7 2.9 6.6 6.6 6.6s6.4-2.8 6.4-6.6v-32.3c0-10.7 6.8-18.4 16-18.4s14.7 6.5 14.7 17.3v33.4c0 3.7 2.8 6.6 6.5 6.6s6.6-2.9 6.6-6.6v-32.6c0-10.8 6.3-18 15.8-18s14.8 6.2 14.8 17.5v33.1c0 3.7 2.9 6.6 6.6 6.6 3.6 0 6.4-2.9 6.4-6.6v-35.4c-.1-16.9-9.8-27.4-25.5-27.4z"/><path d="m535.5 73.4c-9 0-16.5 3.5-22.7 10.8v-3.5c0-3.7-2.9-6.6-6.6-6.6-3.6 0-6.4 2.9-6.4 6.6v75.2c0 3.7 2.9 6.6 6.6 6.6s6.4-2.8 6.4-6.6v-22.7c6.1 6.8 13.7 10.3 22.7 10.3 15.7 0 32.3-12.3 32.3-35v-.2c0-22.7-16.7-34.9-32.3-34.9zm19 35.2c0 13.5-8.5 22.8-20.7 22.8-10.5 0-21.4-8.6-21.4-23v-.2c0-14.1 11.1-22.8 21.4-22.8 12 0 20.7 9.7 20.7 23z"/><path d="m591.6 56.2c-3.5 0-6.4 2.9-6.4 6.6v73.4c0 3.7 2.9 6.6 6.6 6.6s6.4-2.8 6.4-6.6v-73.4c0-3.7-3-6.6-6.6-6.6z"/></g></svg>